<?xml version="1.0" standalone="no"?>
<!DOCTYPE svg PUBLIC "-//W3C//DTD SVG 20010904//EN"
 "http://www.w3.org/TR/2001/REC-SVG-20010904/DTD/svg10.dtd">
<svg version="1.0" xmlns="http://www.w3.org/2000/svg"
 width="500.000000pt" height="500.000000pt" viewBox="0 0 500.000000 500.000000"
 preserveAspectRatio="xMidYMid meet">

<g transform="translate(0.000000,500.000000) scale(0.100000,-0.100000)"
fill="#000000" stroke="none">
<path d="M2390 4286 c0 -41 5 -78 10 -81 6 -4 10 23 10 74 0 47 -4 81 -10 81
-6 0 -10 -31 -10 -74z"/>
<path d="M2860 4192 c-5 -90 -4 -93 20 -109 l25 -16 -17 25 c-12 18 -18 52
-20 110 l-3 83 -5 -93z"/>
<path d="M2530 4260 c0 -6 9 -18 20 -27 11 -10 20 -31 21 -48 1 -29 1 -29 9
-5 13 40 12 45 -20 68 -16 13 -30 18 -30 12z"/>
<path d="M2240 4191 c0 -5 5 -13 10 -16 6 -3 10 -2 10 4 0 5 -4 13 -10 16 -5
3 -10 2 -10 -4z"/>
<path d="M2188 4184 c-14 -13 -8 -41 11 -58 11 -10 22 -28 24 -40 4 -18 4 -17
6 5 0 15 -5 32 -13 39 -8 6 -16 23 -18 37 -2 14 -6 21 -10 17z"/>
<path d="M2398 4177 c-5 -10 -8 -33 -8 -51 0 -18 -5 -37 -11 -43 -7 -7 -2 -12
20 -15 32 -5 38 1 22 18 -6 5 -11 32 -13 59 -2 34 -5 44 -10 32z"/>
<path d="M2707 4093 c-4 -3 -7 -57 -7 -119 l0 -113 -34 -36 c-19 -20 -41 -44
-48 -53 -12 -16 -11 -16 7 -2 86 66 95 86 89 202 -3 53 -1 95 6 108 10 19 1
28 -13 13z"/>
<path d="M3132 4084 c-11 -19 -4 -54 9 -54 6 0 14 -10 19 -22 9 -23 9 -23 9
-2 1 12 -6 27 -15 35 -9 7 -14 22 -11 36 5 27 1 29 -11 7z"/>
<path d="M1853 4076 c20 -15 22 -37 5 -54 -17 -17 -26 -15 -38 9 -9 15 -8 24
2 37 12 15 11 16 -4 3 -22 -17 -23 -44 -3 -61 11 -9 15 -34 16 -94 0 -44 4
-90 9 -101 6 -13 9 15 9 81 1 88 4 103 21 119 25 23 26 51 1 65 -28 14 -39 12
-18 -4z"/>
<path d="M3201 4078 c0 -9 -4 -25 -7 -35 -5 -14 -4 -15 5 -7 7 7 11 22 8 35
-2 13 -5 16 -6 7z"/>
<path d="M2415 4020 c-4 -7 -16 -10 -26 -7 -11 3 -19 1 -19 -4 0 -13 47 -11
55 2 4 6 5 13 2 15 -3 3 -8 0 -12 -6z"/>
<path d="M2865 4020 c-3 -5 -1 -10 4 -10 6 0 11 5 11 10 0 6 -2 10 -4 10 -3 0
-8 -4 -11 -10z"/>
<path d="M2222 3935 l-1 -60 64 -58 c80 -72 85 -63 8 15 -51 52 -58 64 -64
111 l-6 52 -1 -60z"/>
<path d="M3017 3972 c-22 -24 -21 -31 4 -58 17 -18 21 -36 22 -103 3 -108 17
-104 17 5 0 76 -2 88 -22 103 -25 21 -19 47 14 61 22 8 22 9 2 9 -11 1 -28 -7
-37 -17z"/>
<path d="M1718 3940 c25 -11 30 -48 7 -56 -8 -4 -22 -1 -30 6 -9 7 -18 10 -21
7 -3 -3 4 -14 15 -24 19 -15 21 -28 21 -115 0 -54 4 -100 10 -103 6 -4 10 30
10 95 0 87 3 106 20 127 11 14 20 29 20 34 0 16 -32 39 -53 38 l-22 0 23 -9z"/>
<path d="M1970 3920 c0 -5 5 -10 10 -10 6 0 10 5 10 10 0 6 -4 10 -10 10 -5 0
-10 -4 -10 -10z"/>
<path d="M3614 3865 c0 -19 4 -31 8 -29 4 3 8 16 8 29 0 13 -4 26 -8 29 -4 2
-8 -10 -8 -29z"/>
<path d="M1983 3840 c0 -25 2 -35 4 -22 2 12 2 32 0 45 -2 12 -4 2 -4 -23z"/>
<path d="M2549 3853 c-13 -16 -12 -17 4 -4 9 7 17 15 17 17 0 8 -8 3 -21 -13z"/>
<path d="M1531 3846 c-15 -18 -11 -58 7 -64 11 -3 12 0 2 18 -10 18 -9 25 3
38 9 8 23 12 31 9 21 -8 20 -44 -1 -55 -13 -8 -18 -29 -21 -99 -4 -84 -3 -90
22 -120 15 -18 50 -51 79 -74 l52 -43 -51 55 c-79 84 -84 94 -84 177 0 60 4
78 22 103 17 23 20 34 12 47 -14 22 -57 27 -73 8z"/>
<path d="M3161 3685 l-1 -181 -80 -84 c-56 -60 -79 -92 -79 -110 l0 -25 10 25
c6 14 66 82 135 151 110 112 124 130 124 160 0 24 6 38 21 47 28 18 21 54 -13
66 -19 7 -31 6 -42 -4 -20 -16 -21 -59 -1 -66 25 -10 18 -68 -11 -103 -43 -51
-50 -42 -47 62 1 50 -2 126 -6 167 -7 64 -8 48 -10 -105z m127 19 c4 -29 -23
-51 -43 -34 -18 15 -19 32 -3 48 18 18 42 10 46 -14z"/>
<path d="M1260 3831 c0 -5 5 -13 10 -16 6 -3 10 -15 10 -26 0 -13 -7 -19 -24
-19 -13 0 -26 6 -29 13 -2 7 -8 8 -13 3 -5 -5 1 -15 14 -23 21 -14 22 -22 22
-126 l0 -112 142 -137 c79 -75 145 -135 147 -132 3 3 -57 66 -132 142 l-137
137 0 111 c0 87 3 114 15 124 21 18 19 47 -5 60 -12 7 -20 7 -20 1z"/>
<path d="M1421 3816 c10 -21 9 -29 -4 -44 -13 -15 -17 -39 -17 -117 l0 -98 48
-46 c120 -117 182 -172 182 -164 0 4 -47 55 -105 113 l-105 105 0 95 c0 55 5
101 11 107 14 14 8 65 -9 71 -10 3 -10 -2 -1 -22z"/>
<path d="M3392 3828 c-19 -19 -14 -56 8 -68 15 -8 20 -22 22 -53 l1 -42 4 40
c3 22 12 49 21 60 16 19 16 19 0 6 -24 -18 -48 -7 -48 23 0 31 14 40 41 25 17
-9 20 -8 17 3 -6 17 -50 22 -66 6z"/>
<path d="M1360 3811 c-7 -15 -6 -23 6 -35 21 -22 27 -20 14 3 -5 11 -7 27 -4
35 9 23 -3 20 -16 -3z"/>
<path d="M2107 3823 c-3 -5 8 -8 23 -8 15 0 26 3 23 8 -2 4 -13 7 -23 7 -10 0
-21 -3 -23 -7z"/>
<path d="M2855 3813 c-12 -11 -15 -26 -11 -47 5 -28 0 -38 -54 -91 -33 -33
-60 -64 -60 -69 0 -6 30 19 68 56 37 36 76 70 87 76 16 9 17 11 4 12 -44 1
-46 60 -2 60 13 0 21 4 18 10 -9 15 -31 12 -50 -7z"/>
<path d="M3580 3713 l0 -117 -145 -146 -145 -147 0 -121 c0 -121 0 -121 -30
-156 -17 -19 -43 -37 -58 -39 -25 -4 -25 -4 4 -6 25 -1 39 7 68 39 l36 40 0
122 0 121 145 147 145 146 0 117 c0 71 -4 117 -10 117 -6 0 -10 -46 -10 -117z"/>
<path d="M2161 3784 c0 -11 3 -14 6 -6 3 7 2 16 -1 19 -3 4 -6 -2 -5 -13z"/>
<path d="M2964 3637 c-118 -120 -124 -138 -9 -25 55 54 97 100 94 102 -3 3
-41 -32 -85 -77z"/>
<path d="M3411 3599 c-5 -13 -66 -80 -135 -149 l-126 -125 2 -90 1 -90 6 82 7
82 125 128 c115 117 151 165 135 180 -3 3 -10 -5 -15 -18z"/>
<path d="M3692 3601 c-7 -4 -14 -20 -16 -36 -2 -20 -34 -59 -119 -144 l-115
-116 5 -143 6 -143 -49 -50 c-48 -48 -49 -49 -114 -50 -107 -2 -128 -17 -25
-18 l91 -1 52 53 52 53 0 144 0 144 123 123 c77 77 120 128 116 135 -10 16 8
48 26 48 25 0 37 -36 19 -54 -8 -9 -11 -16 -5 -16 6 0 15 9 21 21 20 37 -31
74 -68 50z"/>
<path d="M866 3434 c-19 -18 -20 -28 -6 -55 14 -25 52 -24 75 1 17 18 31 20
186 20 l168 0 110 -106 c61 -58 111 -102 111 -97 0 5 -49 58 -110 117 l-110
109 -168 -7 c-162 -7 -168 -7 -186 13 -23 25 -49 27 -70 5z m54 -9 c17 -21 5
-45 -24 -45 -27 0 -42 26 -25 46 15 18 33 18 49 -1z"/>
<path d="M4060 3345 c-10 -12 -45 -15 -197 -15 l-185 0 -49 -52 -49 -53 0
-135 0 -134 -42 -43 c-58 -59 -44 -61 21 -3 l53 48 167 -1 c91 0 247 2 346 4
146 3 113 5 -170 9 l-350 5 -9 76 c-13 113 -3 162 46 215 l41 44 182 0 c172 0
184 -1 210 -22 29 -23 48 -19 69 15 12 19 -1 48 -25 56 -12 4 -12 2 -1 -12 20
-23 6 -59 -21 -55 -28 4 -35 38 -11 55 15 11 15 13 2 13 -8 0 -21 -7 -28 -15z"/>
<path d="M653 3298 c-2 -5 124 -8 281 -8 l284 0 74 -70 c66 -63 77 -69 115
-70 35 0 49 -6 78 -35 19 -20 35 -32 35 -27 0 23 -68 70 -111 76 -39 6 -54 15
-113 77 l-69 71 -284 -3 c-157 -2 -287 -7 -290 -11z"/>
<path d="M4180 3215 c-7 -8 -20 -15 -29 -15 -29 -1 42 -50 72 -50 34 0 58 40
37 65 -16 19 -64 19 -80 0z m68 -28 c2 -9 -4 -20 -12 -23 -21 -8 -46 13 -39
32 8 20 47 13 51 -9z"/>
<path d="M3891 3155 c-26 -25 -57 -45 -69 -45 -24 0 -52 -25 -52 -46 0 -26 37
-53 62 -46 23 7 23 7 1 10 -32 5 -49 28 -33 47 17 20 37 19 49 -2 9 -16 10
-16 11 5 0 13 17 37 41 60 34 30 54 39 108 48 l66 12 -68 1 c-67 1 -68 1 -116
-44z"/>
<path d="M765 3040 c17 -4 153 -8 303 -9 l272 -1 44 -40 c62 -57 70 -50 11 10
l-49 50 -306 -1 c-168 -1 -291 -5 -275 -9z"/>
<path d="M767 2893 c-14 -13 -7 -24 12 -18 10 3 24 -1 31 -10 13 -16 50 -21
50 -7 0 17 -81 47 -93 35z"/>
<path d="M2359 2842 c30 -76 119 -249 132 -257 6 -4 17 -1 24 6 12 12 3 36
-51 149 -36 74 -66 135 -67 136 -1 2 -15 6 -30 9 l-28 7 20 -50z"/>
<path d="M1002 2861 c-8 -5 16 -11 65 -15 l78 -7 67 -66 c37 -37 70 -64 73
-61 3 3 -27 40 -67 82 l-73 76 -65 0 c-36 0 -71 -4 -78 -9z"/>
<path d="M1528 2859 c15 -6 30 -5 40 1 13 7 8 9 -23 9 -35 0 -37 -1 -17 -10z"/>
<path d="M3633 2778 c-69 -67 -95 -102 -68 -92 8 4 15 9 15 13 0 4 30 33 66
64 l66 57 91 1 c106 2 77 16 -36 18 l-69 1 -65 -62z"/>
<path d="M3257 2783 c-83 -5 -80 -23 4 -23 l59 0 0 -55 0 -55 -42 -1 c-74 -1
-92 -17 -20 -18 l62 -1 0 -59 0 -60 -52 -4 -53 -3 52 -2 52 -2 0 -110 0 -110
-39 0 c-22 0 -40 -4 -40 -10 0 -5 18 -10 40 -10 39 0 40 -1 41 -37 2 -61 13
-98 29 -98 8 0 13 7 11 15 -2 8 -2 142 -2 298 2 288 -2 354 -23 350 -6 -1 -42
-3 -79 -5z"/>
<path d="M1070 2730 c-11 -11 -33 -20 -51 -20 -19 0 -28 -4 -23 -11 3 -6 15
-8 26 -6 12 4 26 -2 36 -14 30 -35 92 -22 92 20 0 51 -43 68 -80 31z m64 -17
c10 -26 -23 -48 -42 -29 -8 8 -12 22 -9 30 8 21 43 20 51 -1z"/>
<path d="M4153 2733 c-7 -2 -13 -10 -13 -18 0 -8 25 -15 82 -20 71 -6 85 -10
110 -35 15 -16 28 -36 28 -45 0 -13 10 -15 63 -13 47 2 62 7 62 18 0 10 -13
16 -41 18 -35 3 -42 7 -52 36 -17 46 -64 66 -155 65 -40 0 -78 -3 -84 -6z"/>
<path d="M3681 2619 c-62 -61 -110 -114 -107 -116 3 -3 55 42 115 101 85 83
115 106 137 106 32 0 30 5 -7 13 -23 6 -39 -7 -138 -104z"/>
<path d="M648 2713 c-28 -7 -21 -20 13 -27 42 -8 119 -8 215 2 l79 7 -115 6
c-63 3 -128 8 -145 12 -16 3 -38 3 -47 0z"/>
<path d="M1573 2703 c26 -2 67 -2 90 0 23 2 2 3 -48 3 -49 0 -68 -1 -42 -3z"/>
<path d="M3936 2670 c-21 -54 -20 -95 4 -145 29 -60 69 -80 220 -111 157 -32
211 -59 225 -111 9 -37 35 -10 35 37 0 62 -35 80 -220 120 -58 12 -126 32
-150 44 -58 29 -93 91 -88 159 2 26 0 47 -3 47 -4 0 -14 -18 -23 -40z"/>
<path d="M2016 2684 c-19 -49 -9 -61 102 -124 111 -62 139 -71 149 -45 7 20
-6 30 -124 95 -67 37 -93 57 -93 71 0 23 -25 25 -34 3z"/>
<path d="M453 2645 c0 -27 2 -38 4 -22 2 15 2 37 0 50 -2 12 -4 0 -4 -28z"/>
<path d="M1476 2514 c-47 -46 -61 -64 -45 -59 13 4 47 29 74 56 l51 49 71 0
c40 0 75 5 78 10 4 6 -24 10 -77 10 l-83 -1 -69 -65z"/>
<path d="M3736 2544 c-21 -21 -20 -40 5 -65 13 -13 27 -18 41 -13 16 5 33 -7
79 -52 32 -32 61 -55 64 -52 4 3 -19 31 -49 63 -31 31 -56 64 -56 74 0 25 -29
61 -50 61 -10 0 -26 -7 -34 -16z m62 -30 c4 -26 -26 -40 -45 -21 -8 7 -11 21
-7 31 9 24 48 17 52 -10z"/>
<path d="M619 2434 c-14 -17 -14 -16 29 -31 32 -11 147 -9 202 4 25 6 25 6 -5
13 -16 4 -55 8 -85 9 -30 1 -72 5 -92 10 -28 7 -40 5 -49 -5z"/>
<path d="M492 2332 c-1 -72 -6 -111 -12 -107 -5 3 -10 26 -10 51 0 24 -4 44
-10 44 -6 0 -10 -40 -10 -100 l0 -100 66 0 c57 0 65 2 62 18 -1 9 0 22 4 27 4
6 -10 9 -38 7 l-43 -4 -4 139 -3 138 -2 -113z"/>
<path d="M1030 2403 c1 -17 28 -43 45 -43 9 0 60 -25 112 -56 l95 -56 -30 -31
-30 -30 -146 -3 c-143 -4 -146 -3 -172 21 -32 29 -33 30 -62 9 -29 -20 -28
-50 3 -70 23 -15 27 -15 61 6 34 22 43 22 172 17 l137 -5 41 40 42 40 58 -31
c66 -35 74 -37 74 -18 0 12 -94 67 -285 169 -87 46 -115 56 -115 41z m-140
-209 c11 -12 10 -18 -3 -31 -8 -9 -23 -13 -31 -10 -19 8 -21 43 -3 50 20 9 24
8 37 -9z"/>
<path d="M828 2383 c6 -2 18 -2 25 0 6 3 1 5 -13 5 -14 0 -19 -2 -12 -5z"/>
<path d="M945 2370 c-25 -6 -20 -8 25 -8 39 0 49 2 35 8 -23 10 -21 10 -60 0z"/>
<path d="M1532 2344 c-12 -8 -22 -20 -22 -25 0 -6 10 -3 22 5 12 9 33 16 46
16 13 0 20 4 17 10 -9 15 -37 12 -63 -6z"/>
<path d="M3900 2305 c0 -79 59 -150 152 -181 74 -24 228 -21 313 8 96 32 95
48 -2 30 -100 -17 -229 -9 -292 19 -57 25 -87 53 -113 104 -33 65 -58 73 -58
20z"/>
<path d="M2017 2283 c-4 -3 -7 -30 -7 -60 0 -38 4 -53 14 -53 27 0 35 23 24
73 -9 45 -17 55 -31 40z"/>
<path d="M2248 2189 c-43 -24 -10 -29 207 -29 l225 0 54 -108 c30 -60 67 -123
82 -141 31 -37 90 -77 128 -87 27 -6 33 -18 16 -29 -14 -9 -12 -89 2 -103 17
-17 45 -15 52 3 4 12 2 13 -15 2 -16 -10 -21 -9 -29 3 -28 43 6 126 35 87 12
-16 13 -15 17 7 3 15 0 27 -8 30 -8 3 -14 12 -14 19 0 8 -18 22 -41 32 -71 32
-123 93 -183 214 l-56 111 -228 0 c-135 0 -234 -5 -244 -11z"/>
<path d="M3280 2131 c22 -6 25 -12 25 -58 0 -28 3 -49 8 -46 12 7 8 88 -5 101
-7 7 -21 12 -32 11 -18 -1 -17 -2 4 -8z"/>
<path d="M1426 2080 l-38 -40 -90 0 c-75 0 -94 3 -115 20 -34 27 -59 25 -78
-4 -13 -19 -14 -29 -5 -45 13 -25 67 -29 76 -6 5 12 27 15 110 15 l104 0 45
41 c43 39 55 59 37 59 -4 0 -25 -18 -46 -40z m-259 -36 c3 -8 -2 -23 -11 -32
-14 -15 -18 -15 -31 -1 -9 9 -13 23 -9 32 8 21 43 22 51 1z"/>
<path d="M1700 1993 c-146 -63 -287 -123 -315 -132 -27 -10 -50 -23 -50 -29 0
-6 -9 -18 -20 -26 -18 -14 -9 -15 100 -16 66 -1 171 -1 233 0 87 1 112 -2 112
-12 0 -7 -48 -62 -108 -121 l-107 -107 -124 0 c-108 0 -126 2 -148 20 -31 24
-46 25 -67 4 -20 -20 -20 -48 0 -68 21 -21 41 -20 61 4 16 18 30 20 150 20
l133 0 110 107 c61 58 113 117 116 130 4 12 12 23 20 23 8 0 14 7 14 15 0 9 7
18 16 22 14 5 151 270 143 277 -2 2 -123 -48 -269 -111z m-442 -451 c4 -26
-22 -40 -43 -22 -11 9 -12 17 -4 32 13 25 43 19 47 -10z"/>
<path d="M3562 2072 c8 -9 54 -12 182 -10 194 2 153 14 -66 20 -101 2 -124 0
-116 -10z"/>
<path d="M4008 2071 c-14 -5 -11 -10 18 -30 26 -18 38 -21 46 -13 9 9 8 12 -4
12 -9 0 -23 8 -30 19 -8 11 -20 16 -30 12z"/>
<path d="M1480 2008 c-10 -18 -18 -33 -17 -33 1 -1 28 1 59 3 37 2 58 9 62 18
4 12 2 12 -14 4 -17 -9 -20 -7 -21 12 -1 22 -1 22 -9 -2 -5 -17 -8 -19 -9 -7
-1 9 -6 17 -12 17 -5 0 -7 5 -4 10 3 6 1 10 -5 10 -5 0 -19 -14 -30 -32z"/>
<path d="M3511 1956 l76 -76 141 0 c115 0 141 -3 146 -15 9 -25 65 -19 77 9
24 53 -36 90 -76 46 -16 -18 -31 -20 -154 -20 l-136 0 -55 55 c-30 31 -64 60
-75 66 -11 6 14 -23 56 -65z m427 -62 c4 -26 -26 -40 -45 -21 -8 7 -11 21 -7
31 9 24 48 17 52 -10z"/>
<path d="M1428 1953 c-6 -15 -21 -39 -32 -52 l-21 -24 22 12 c12 6 26 18 31
26 4 9 20 19 34 23 l26 7 -24 18 c-24 18 -24 18 -36 -10z"/>
<path d="M3385 1960 c-3 -5 -2 -10 4 -10 5 0 12 -15 14 -32 3 -29 4 -27 5 10
2 39 -9 55 -23 32z"/>
<path d="M3565 1790 c66 -66 124 -120 130 -120 5 0 -44 54 -110 120 -66 66
-124 120 -130 120 -5 0 44 -54 110 -120z"/>
<path d="M786 1884 c-20 -19 -20 -34 0 -62 19 -27 50 -28 66 -2 12 19 24 20
237 20 123 0 221 3 217 8 -4 4 -101 7 -215 7 -199 0 -207 1 -235 23 -34 26
-49 28 -70 6z m59 -34 c0 -16 -6 -26 -19 -28 -25 -5 -39 12 -31 38 10 31 50
24 50 -10z"/>
<path d="M1938 1804 c-5 -4 -8 -62 -8 -129 l0 -121 -147 -145 c-215 -210 -213
-207 -213 -280 0 -51 -4 -64 -22 -79 -19 -15 -21 -21 -10 -44 13 -30 55 -44
77 -26 21 17 19 54 -5 75 -16 14 -20 31 -20 79 l0 61 180 180 181 181 -3 128
c-2 70 -6 124 -10 120z m-338 -764 c18 -11 3 -43 -24 -48 -21 -4 -32 24 -16
43 14 17 20 18 40 5z"/>
<path d="M2070 1667 l0 -143 -170 -172 c-163 -164 -170 -173 -170 -211 0 -30
-5 -43 -20 -51 -22 -12 -27 -49 -8 -68 7 -7 25 -12 40 -12 21 0 32 7 40 26 11
23 10 29 -10 44 -16 13 -22 29 -22 57 0 36 9 47 170 208 l170 170 0 147 c0 92
-4 148 -10 148 -6 0 -10 -54 -10 -143z m-315 -613 c0 -22 -5 -29 -20 -29 -23
0 -32 30 -14 51 18 22 34 11 34 -22z"/>
<path d="M2240 1702 l0 -109 125 -124 125 -125 2 -260 c2 -256 2 -260 -20
-282 -26 -26 -27 -32 -6 -58 10 -12 14 -14 11 -4 -7 23 12 50 34 50 18 0 21
-5 17 -30 -4 -24 -2 -27 9 -19 19 16 16 42 -7 62 -19 16 -20 29 -20 279 l0
263 -125 127 -125 126 0 106 c0 64 -4 106 -10 106 -6 0 -10 -43 -10 -108z"/>
<path d="M2400 1743 l0 -67 220 -221 220 -221 0 -205 c0 -192 -1 -206 -20
-222 -24 -20 -26 -50 -5 -67 13 -11 14 -8 9 17 -4 23 -2 32 11 37 36 14 61
-34 28 -53 -17 -10 -17 -10 -1 -11 29 0 34 47 9 74 -20 21 -21 32 -20 221 0
110 0 206 0 214 -1 8 -101 115 -222 237 l-222 223 5 51 c3 28 1 53 -3 56 -5 3
-9 -25 -9 -63z"/>
<path d="M2571 1810 c-9 -22 -6 -90 4 -110 7 -14 101 -110 209 -214 l196 -189
0 -180 c0 -172 -1 -182 -22 -204 -18 -19 -20 -27 -10 -48 17 -36 68 -35 84 1
11 23 10 29 -10 44 -21 18 -22 24 -22 201 l0 183 -207 208 -207 208 -7 53 c-3
28 -7 50 -8 47z m449 -925 c0 -7 -7 -18 -15 -25 -12 -10 -18 -10 -30 0 -19 16
-19 25 1 45 12 12 19 13 30 4 8 -6 14 -17 14 -24z"/>
<path d="M2720 1773 c0 -36 10 -48 206 -243 114 -113 202 -198 198 -189 -5 9
-93 103 -196 209 -155 158 -188 197 -188 220 0 16 -4 32 -10 35 -6 4 -10 -9
-10 -32z"/>
<path d="M1840 1721 l0 -79 -185 -178 c-115 -111 -196 -181 -212 -184 -14 -3
-32 -14 -40 -26 -12 -19 -11 -24 7 -45 19 -22 20 -22 8 -2 -11 19 -10 25 4 39
9 9 24 14 32 11 21 -8 21 -43 0 -55 -10 -6 -13 -12 -6 -16 17 -10 42 23 42 58
0 29 18 50 165 191 91 87 175 173 186 191 15 26 19 48 18 103 -2 97 -19 90
-19 -8z"/>
<path d="M1474 1732 l-47 -52 -211 -2 -211 -2 190 -6 c105 -3 203 -2 220 2 32
9 123 93 112 104 -4 4 -28 -16 -53 -44z"/>
<path d="M2871 1735 c-1 -47 2 -54 42 -93 58 -56 73 -54 17 3 -35 36 -45 54
-51 92 l-6 48 -2 -50z"/>
<path d="M3050 1731 c0 -11 4 -22 9 -25 4 -3 6 6 3 19 -5 30 -12 33 -12 6z"/>
<path d="M3470 1714 c0 -17 27 -37 42 -31 8 4 7 6 -4 6 -9 1 -22 9 -27 19 -6
9 -11 12 -11 6z"/>
<path d="M4052 1700 l-24 -19 28 -26 c15 -14 32 -25 39 -25 21 0 47 37 43 62
-4 31 -54 36 -86 8z m68 -6 c11 -12 11 -18 -2 -30 -18 -18 -48 -8 -48 16 0 16
11 27 31 29 4 1 12 -6 19 -15z"/>
<path d="M3078 1683 c6 -2 18 -2 25 0 6 3 1 5 -13 5 -14 0 -19 -2 -12 -5z"/>
<path d="M958 1673 c6 -2 18 -2 25 0 6 3 1 5 -13 5 -14 0 -19 -2 -12 -5z"/>
<path d="M3028 1633 c-2 -5 -1 -35 3 -68 l6 -60 1 68 c2 61 -1 80 -10 60z"/>
<path d="M3090 1625 c-7 -9 -11 -17 -9 -20 3 -2 10 5 17 15 14 24 10 26 -8 5z"/>
<path d="M3132 1620 c14 -22 24 -19 15 5 -4 8 -11 15 -17 15 -6 0 -6 -7 2 -20z"/>
<path d="M3197 1633 c-3 -5 8 -8 23 -8 15 0 26 3 23 8 -2 4 -13 7 -23 7 -10 0
-21 -3 -23 -7z"/>
<path d="M3337 1630 c6 -8 13 -28 16 -45 l4 -30 2 31 c0 20 -6 37 -16 45 -16
12 -16 12 -6 -1z"/>
<path d="M3477 1633 c-3 -5 8 -8 23 -8 15 0 26 3 23 8 -2 4 -13 7 -23 7 -10 0
-21 -3 -23 -7z"/>
<path d="M3416 1617 c3 -10 9 -15 12 -12 3 3 0 11 -7 18 -10 9 -11 8 -5 -6z"/>
<path d="M3182 1579 c-2 -25 4 -42 18 -54 20 -18 21 -18 38 0 13 14 13 16 1 7
-23 -17 -47 5 -52 48 l-4 35 -1 -36z"/>
<path d="M3462 1580 c0 -19 2 -27 5 -17 2 9 2 25 0 35 -3 9 -5 1 -5 -18z"/>
<path d="M3532 1580 c0 -19 2 -27 5 -17 2 9 2 25 0 35 -3 9 -5 1 -5 -18z"/>
<path d="M3252 1575 c0 -16 2 -22 5 -12 2 9 2 23 0 30 -3 6 -5 -1 -5 -18z"/>
<path d="M3081 1544 c0 -11 3 -14 6 -6 3 7 2 16 -1 19 -3 4 -6 -2 -5 -13z"/>
<path d="M3290 1541 c0 -10 29 -36 34 -30 1 2 -6 12 -16 22 -10 9 -18 13 -18
8z"/>
<path d="M3482 1525 c15 -16 20 -17 30 -6 11 11 10 13 0 7 -7 -4 -21 -2 -30 5
-15 12 -15 11 0 -6z"/>
<path d="M3207 1348 l120 -123 -4 -60 c-3 -33 -12 -67 -19 -76 -8 -8 -14 -23
-14 -31 0 -20 26 -41 42 -35 8 4 7 6 -4 6 -23 1 -24 49 -2 58 24 9 46 -24 33
-48 -7 -15 -6 -17 6 -13 21 9 19 48 -5 69 -16 14 -20 31 -20 79 l0 61 -117
117 c-65 65 -122 118 -127 118 -6 0 44 -55 111 -122z"/>
<path d="M3562 1426 l38 -36 157 0 c132 0 159 -3 175 -17 22 -20 36 -10 18 12
-16 20 -1 39 26 33 13 -2 19 -12 19 -30 -1 -21 2 -25 13 -16 21 18 10 52 -20
62 -21 8 -32 6 -46 -7 -27 -24 -343 -25 -362 -1 -8 8 -23 20 -34 25 -12 6 -5
-5 16 -25z"/>
<path d="M2013 1278 l-161 -163 5 -75 c5 -67 3 -77 -16 -94 -39 -36 -18 -80
36 -74 23 2 29 9 31 33 2 17 -2 33 -11 40 -18 13 -31 124 -18 158 6 14 74 92
152 172 179 183 177 183 292 67 l77 -77 0 -60 c0 -46 -4 -63 -22 -82 -18 -19
-20 -27 -10 -48 13 -27 58 -35 80 -13 19 19 14 56 -8 68 -17 9 -20 21 -20 78
l0 67 -83 83 c-76 75 -86 82 -123 82 -38 0 -46 -6 -201 -162z m425 -186 c4
-28 -24 -40 -45 -19 -14 13 -14 19 -3 32 18 22 44 15 48 -13z m-550 -185 c3
-22 -1 -27 -18 -27 -23 0 -35 22 -26 46 10 25 41 12 44 -19z"/>
<path d="M3395 1350 c16 -19 52 -59 79 -87 48 -51 53 -53 102 -53 37 0 59 -6
79 -22 34 -26 78 -16 83 20 7 49 -48 70 -83 32 -13 -15 -31 -20 -68 -20 -43 0
-53 4 -85 37 -21 20 -59 57 -87 82 -40 36 -44 38 -20 11z m320 -140 c0 -16 -6
-26 -18 -28 -19 -4 -32 20 -23 44 9 25 41 13 41 -16z"/>
<path d="M2124 1299 c-17 -19 -17 -23 -3 -47 8 -15 24 -28 36 -30 18 -3 22
-12 28 -67 3 -35 6 -92 5 -127 -1 -35 0 -72 1 -83 1 -11 5 63 9 165 5 158 4
187 -9 198 -22 18 -45 15 -67 -9z m64 -25 c3 -22 -21 -39 -39 -28 -11 6 -12
38 -2 48 13 13 38 1 41 -20z"/>
<path d="M3122 1154 c-2 -147 -4 -163 -22 -179 -26 -23 -26 -61 0 -75 51 -27
91 31 51 73 -19 21 -21 36 -24 182 l-3 160 -2 -161z m32 -207 c9 -14 7 -21 -7
-32 -25 -18 -47 -9 -47 19 0 40 32 48 54 13z"/>
<path d="M1979 1144 c-10 -12 -13 -53 -14 -150 0 -127 -1 -134 -22 -149 -13
-9 -23 -22 -23 -30 0 -23 30 -45 61 -45 39 0 51 41 20 74 -19 20 -21 34 -21
124 0 101 0 102 24 102 45 0 72 50 44 78 -17 17 -53 15 -69 -4z m71 -22 c-1
-18 -19 -34 -36 -30 -22 4 -31 37 -13 49 13 8 49 -6 49 -19z m-52 -310 c4 -28
-24 -40 -45 -19 -14 13 -14 19 -3 32 18 22 44 15 48 -13z"/>
<path d="M2287 932 c-10 -10 -17 -23 -17 -28 1 -15 60 -79 60 -64 0 7 10 24
22 37 19 20 20 26 8 48 -16 30 -50 33 -73 7z m61 -26 c5 -25 -12 -39 -37 -31
-20 6 -28 34 -14 49 13 13 48 1 51 -18z"/>
<path d="M2319 765 c-4 -5 -7 -46 -8 -90 -1 -58 1 -77 9 -69 7 7 10 42 8 90
-2 43 -6 75 -9 69z"/>
</g>
</svg>
